# xmcd CD database file
#
# Track frame offsets:
#	150
#	15944
#	32805
#	47502
#	62852
#	79650
#	98289
#	114109
#	130947
#	149892
#	164287
#	177654
#	195816
#	212516
#	230291
#	246269
#	262424
#	279333
#
# Disc length: 3951 seconds
#
# Revision: 0
# Processed by: cddbd v1.5.1PL0 Copyright (c) Steve Scherf et al.
# Submitted via: CDex 1.51
#
DISCID=f10f6d12
DTITLE=Various Artist - Promo Only Canada August 2002 Country Radio
DYEAR=2002
DGENRE=Country
TTITLE0=Tim McGraw - Unbroken
TTITLE1=Dixie Chicks - Long Time Gone
TTITLE2=Steve Azar - I Don't Have To Be Me ('Til Monday)
TTITLE3=Jack Ingram - One Thing
TTITLE4=Little Big Town - Everything Changes
TTITLE5=Montgomery Gentry - My Town
TTITLE6=Rascal Flatts - These Days
TTITLE7=Adam Gregory - The World Could Use A Cowboy
TTITLE8=Doc Walker - Rocket Girl
TTITLE9=Eric Heatherly - The Last Man Committed
TTITLE10=Kevin Denney - Cadillac Tears
TTITLE11=Alan Jackson - Work In Progress
TTITLE12=Neal McCoy - What If
TTITLE13=Rebecca Lynn Howard - Forgive
TTITLE14=SheDaisy - Mine All Mine
TTITLE15=Aaron Lines - You Can't Hide Beautiful
TTITLE16=Willie Nelson - Maria (Shut Up And Kiss Me)
TTITLE17=Ty Herndon - A Few Short Years
EXTD=YEAR: 2002
EXTT0=
EXTT1=
EXTT2=
EXTT3=
EXTT4=
EXTT5=
EXTT6=
EXTT7=
EXTT8=
EXTT9=
EXTT10=
EXTT11=
EXTT12=
EXTT13=
EXTT14=
EXTT15=
EXTT16=
EXTT17=
PLAYORDER=
